<?xml version="1.0" encoding="iso-8859-1"?>
<!-- Uploaded to: SVG Repo, www.svgrepo.com, Generator: SVG Repo Mixer Tools -->
<svg fill="#214a66" height="800px" width="800px" version="1.1" id="Layer_1" xmlns="http://www.w3.org/2000/svg" xmlns:xlink="http://www.w3.org/1999/xlink" 
	 viewBox="0 0 512 512" xml:space="preserve">
<g>
	<g>
		<path d="M255.998,0c-9.333,0-16.9,7.567-16.9,16.9v33.8c0,9.333,7.567,16.9,16.9,16.9c9.333,0,16.9-7.567,16.9-16.9V16.9
			C272.898,7.567,265.331,0,255.998,0z"/>
	</g>
</g>
<g>
	<g>
		<path d="M200.348,50.018l-33.8-33.8c-6.6-6.6-17.301-6.6-23.9,0c-6.6,6.599-6.6,17.3,0,23.9l33.8,33.8c6.6,6.6,17.3,6.6,23.9,0
			C206.948,67.319,206.948,56.618,200.348,50.018z"/>
	</g>
</g>
<g>
	<g>
		<path d="M369.349,16.217c-6.6-6.6-17.301-6.6-23.9,0l-33.8,33.8c-6.6,6.599-6.6,17.3,0,23.9s17.3,6.6,23.9,0l33.8-33.8
			C375.949,33.519,375.949,22.818,369.349,16.217z"/>
	</g>
</g>
<g>
	<g>
		<path d="M493.604,458.299c-2.26-9.059-11.432-14.573-20.49-12.31l-49.194,12.265l-24.817-99.54
			c65.423-26.498,89.454-102.812,56.967-163.82L402.173,93.682c-3.645-6.846-11.481-10.325-19.006-8.455l-127.168,31.707
			L128.829,85.229c-7.526-1.878-15.361,1.611-19.006,8.455L55.925,194.895c-32.279,60.616-8.828,137.17,56.967,163.82
			l-24.816,99.539l-49.194-12.265c-9.056-2.258-18.229,3.255-20.486,12.31c-2.258,9.056,3.253,18.23,12.309,20.487l131.186,32.708
			c9.071,2.26,18.232-3.266,20.486-12.31c2.258-9.056-3.253-18.23-12.309-20.487l-49.194-12.265l24.82-99.549
			c45.197,4.714,87.286-16.854,110.306-55.895c22.947,38.92,64.963,60.622,110.306,55.895l24.82,99.549l-49.194,12.265
			c-9.056,2.258-14.568,11.431-12.309,20.487c2.258,9.055,11.428,14.568,20.486,12.31l131.186-32.708
			C490.351,476.529,495.863,467.355,493.604,458.299z M137.181,331.157c-50.715-12.645-72.646-63.58-56.661-108.488l157.622,39.3
			C231.237,308.7,188.315,343.913,137.181,331.157z M239.099,227.372h-0.001L95.934,191.676l37.522-70.459l105.643,26.341V227.372z
			 M272.911,227.369l0.051-79.829l105.579-26.324l37.521,70.46L272.911,227.369z M374.814,331.157
			c-50.761,12.662-93.997-22.072-100.961-69.187l157.622-39.3C447.331,267.214,425.9,318.42,374.814,331.157z"/>
	</g>
</g>
</svg>