<?xml version="1.0" encoding="iso-8859-1"?>
<!-- Uploaded to: SVG Repo, www.svgrepo.com, Generator: SVG Repo Mixer Tools -->
<svg height="800px" width="800px" version="1.1" id="Layer_1" xmlns="http://www.w3.org/2000/svg" xmlns:xlink="http://www.w3.org/1999/xlink" 
	 viewBox="0 0 512 512" xml:space="preserve">
<g>
	<path style="fill:#D9D9DB;" d="M479.333,466.179l-42.62-5.877l-51.866-153.877c-1.82-5.41-7.684-8.32-13.092-6.496
		c-4.316,1.452-7.039,5.479-7.039,9.792c0,1.094,0.175,2.206,0.544,3.3l51.879,153.916l-30.323,30.395
		c-6.396,6.412,0.223,17.072,8.807,14.182l85.277-28.714C489.481,479.909,488.304,467.416,479.333,466.179z"/>
	<path style="fill:#D9D9DB;" d="M146.74,312.219c0.369-1.094,0.544-2.206,0.544-3.3c0-4.314-2.724-8.341-7.039-9.792
		c-5.409-1.823-11.273,1.086-13.092,6.496L75.529,458.99c-0.055,0.163-0.076,0.328-0.123,0.492l-42.74,5.894
		c-8.971,1.237-10.147,13.73-1.564,16.62l85.275,28.714c8.583,2.89,15.202-7.77,8.807-14.182l-30.308-30.381
		c0.077-0.19,0.175-0.365,0.241-0.561L146.74,312.219z"/>
</g>
<path style="fill:#F09EA0;" d="M381.188,120.951l44.022,87.412c14.063,41.767-8.393,87.028-50.161,101.091
	c-41.767,14.063-87.028-8.393-101.091-50.161l-17.817-96.237c-0.754-4.069,1.601-8.073,5.523-9.395l109.443-36.852
	C375.03,115.49,379.326,117.254,381.188,120.951z"/>
<path style="fill:#EF8990;" d="M425.21,208.363l-9.516-18.895c6.439,38.028-15.52,76.156-53.231,88.855
	c-34.095,11.481-70.51-1.382-90.39-29.213l1.885,10.185c14.065,41.767,59.324,64.225,101.091,50.161
	C416.816,295.391,439.273,250.131,425.21,208.363z"/>
<path style="fill:#F09EA0;" d="M130.837,120.16l-44.022,87.412c-14.063,41.767,8.393,87.028,50.161,101.091
	s87.028-8.393,101.091-50.161l17.817-96.237c0.754-4.069-1.601-8.073-5.523-9.395l-109.443-36.852
	C136.995,114.699,132.698,116.463,130.837,120.16z"/>
<path style="fill:#EF8990;" d="M237.841,148.656l-15.849,85.61c-14.065,41.767-59.324,64.225-101.091,50.161
	c-12.515-4.214-23.278-11.243-31.863-20.125c8.616,20.211,25.479,36.8,47.939,44.363c41.767,14.064,87.027-8.393,101.092-50.161
	l17.817-96.237c0.754-4.069-1.601-8.073-5.523-9.395L237.841,148.656z"/>
<g>
	<path style="fill:#F9DE8F;" d="M257.613,118.933c-0.554,0-1.116-0.044-1.68-0.136c-5.633-0.92-9.453-6.234-8.531-11.867
		c2.687-16.436,3.938-33.203,3.722-49.835c-0.197-15.035-1.597-30.173-4.163-44.995c-0.974-5.625,2.795-10.973,8.419-11.947
		c5.625-0.973,10.973,2.796,11.946,8.419c2.753,15.893,4.255,32.127,4.465,48.252c0.234,17.835-1.109,35.816-3.991,53.44
		C266.973,115.333,262.588,118.933,257.613,118.933z"/>
	<path style="fill:#F9DE8F;" d="M221.222,116.259c-5.588,0-10.186-4.458-10.326-10.077c-0.135-5.415-1.386-13.57-6.577-21.673
		c-6.891-10.754-16.854-15.388-22.181-17.194c-5.406-1.833-8.301-7.7-6.468-13.106c1.834-5.406,7.707-8.298,13.106-6.47
		c7.887,2.675,22.655,9.559,32.946,25.618c7.768,12.121,9.637,24.259,9.84,32.308c0.143,5.706-4.368,10.448-10.074,10.59
		C221.398,116.257,221.31,116.259,221.222,116.259z"/>
	<path style="fill:#F9DE8F;" d="M295.612,118.18c-0.639,0-1.288-0.059-1.939-0.183c-5.607-1.064-9.29-6.472-8.226-12.081
		c1.374-7.24,5.601-21.048,18.487-32.189c14.871-12.859,31.838-13.843,38.449-13.678c5.706,0.147,10.211,4.893,10.063,10.599
		c-0.145,5.615-4.742,10.067-10.325,10.067c-0.091,0-0.182-0.001-0.273-0.003c-4.182-0.116-14.987,0.515-24.395,8.649
		c-8.145,7.044-10.825,15.809-11.699,20.409C304.811,114.726,300.478,118.18,295.612,118.18z"/>
	<circle style="fill:#F9DE8F;" cx="303.855" cy="20.683" r="10.342"/>
	<circle style="fill:#F9DE8F;" cx="218.463" cy="27.357" r="10.342"/>
</g>
</svg>