<?xml version="1.0" encoding="iso-8859-1"?>
<!-- Uploaded to: SVG Repo, www.svgrepo.com, Generator: SVG Repo Mixer Tools -->
<!DOCTYPE svg PUBLIC "-//W3C//DTD SVG 1.1//EN" "http://www.w3.org/Graphics/SVG/1.1/DTD/svg11.dtd">
<svg version="1.1" id="Capa_1" xmlns="http://www.w3.org/2000/svg" xmlns:xlink="http://www.w3.org/1999/xlink" 
	 viewBox="0 0 211.238 211.238" xml:space="preserve">
<g>
	<path style="opacity:0.08;fill-rule:evenodd;clip-rule:evenodd;" d="M95.589,158.588c-3.705,0.513-7.926,0.968-12.472,1.318
		c-2.213,0.171-4.503,0.317-6.847,0.435c-0.17-0.322-0.359-0.633-0.571-0.926l0.347-0.046l-0.722-0.531l0.234-0.063l-6.24-4.476
		c4.417,0.685,9.134,1.343,13.799,1.91c4.78,0.583,9.505,1.071,13.799,1.397L95.589,158.588z"/>
	<g>
		<g>
			<path style="fill-rule:evenodd;clip-rule:evenodd;fill:#E7B791;" d="M103.775,62.026c3.872,0.214,6.856,1.52,10.728,1.733
				c0.301-5.464,0.603-10.928,0.904-16.392c-3.872-0.213-7.743-0.427-11.615-0.641C103.49,52.191,103.053,55.811,103.775,62.026z"/>
			<path style="fill-rule:evenodd;clip-rule:evenodd;fill:#FFD8B8;" d="M115.17,94.648l-9.58-19.731
				c-1.41-5.335-2.205-10.397-2.18-17.438c3.837-0.408,7.709,0.793,11.352-0.84c2.967,0.615,7.409,6.731,8.264,12.629l3.676,22.2
				L115.17,94.648z"/>
			
				<ellipse transform="matrix(0.2434 -0.9699 0.9699 0.2434 60.172 108.8469)" style="fill-rule:evenodd;clip-rule:evenodd;fill:#fffff;" cx="99.851" cy="15.856" rx="15.362" ry="15.517"/>
			<path style="fill-rule:evenodd;clip-rule:evenodd;fill:#FFFFFF;" d="M97.08,27.486c-0.015,0.048-0.034,0.095-0.056,0.138
				c0.109,0.063,0.206,0.152,0.278,0.266c0.246,0.381,0.136,0.889-0.245,1.134c-0.042,0.027-0.086,0.051-0.131,0.069
				c0.043,0.118,0.06,0.249,0.043,0.383c-0.057,0.449-0.467,0.768-0.917,0.711c-0.05-0.006-0.099-0.017-0.146-0.031
				c-0.043,0.118-0.114,0.229-0.213,0.32c-0.332,0.308-0.851,0.288-1.159-0.044c-0.035-0.037-0.065-0.077-0.091-0.118
				c-0.109,0.063-0.235,0.103-0.371,0.109c-0.452,0.021-0.836-0.327-0.859-0.779c-0.002-0.051,0-0.101,0.006-0.149
				c-0.125-0.021-0.246-0.072-0.354-0.154c-0.361-0.273-0.431-0.788-0.158-1.149c0.031-0.04,0.065-0.076,0.101-0.109
				c-0.082-0.098-0.141-0.214-0.171-0.346c-0.1-0.441,0.177-0.881,0.618-0.981c0.049-0.012,0.099-0.018,0.148-0.02
				c0-0.126,0.029-0.255,0.091-0.375c0.206-0.403,0.701-0.562,1.104-0.354c0.044,0.023,0.087,0.05,0.125,0.079
				c0.082-0.097,0.186-0.176,0.311-0.228c0.417-0.176,0.898,0.02,1.074,0.438c0.02,0.047,0.035,0.094,0.045,0.142
				c0.125-0.022,0.255-0.016,0.385,0.024C96.972,26.595,97.214,27.054,97.08,27.486z"/>
			<path style="fill-rule:evenodd;clip-rule:evenodd;fill:#FFFFFF;" d="M100.592,23.08c-0.015,0.048-0.034,0.094-0.057,0.137
				c0.11,0.063,0.207,0.152,0.279,0.267c0.245,0.381,0.136,0.889-0.245,1.134c-0.042,0.027-0.086,0.05-0.132,0.069
				c0.043,0.118,0.06,0.25,0.042,0.383c-0.057,0.449-0.466,0.768-0.917,0.711c-0.05-0.007-0.099-0.018-0.145-0.031
				c-0.044,0.118-0.115,0.228-0.214,0.32c-0.332,0.308-0.852,0.288-1.159-0.045c-0.034-0.037-0.065-0.076-0.091-0.117
				c-0.109,0.063-0.234,0.102-0.37,0.108c-0.452,0.022-0.837-0.326-0.859-0.779c-0.003-0.05,0-0.1,0.006-0.148
				c-0.124-0.021-0.245-0.072-0.353-0.154c-0.361-0.274-0.431-0.789-0.158-1.149c0.031-0.041,0.065-0.077,0.101-0.109
				c-0.081-0.098-0.142-0.215-0.171-0.346c-0.1-0.441,0.177-0.882,0.618-0.982c0.05-0.012,0.099-0.018,0.148-0.02
				c0-0.126,0.029-0.255,0.09-0.375c0.207-0.402,0.702-0.561,1.104-0.353c0.045,0.022,0.087,0.049,0.126,0.079
				c0.081-0.097,0.186-0.177,0.311-0.229c0.417-0.175,0.898,0.021,1.074,0.439c0.02,0.047,0.035,0.094,0.045,0.141
				c0.124-0.021,0.255-0.015,0.384,0.025C100.484,22.187,100.726,22.647,100.592,23.08z"/>
			<path style="fill-rule:evenodd;clip-rule:evenodd;fill:#FFFFFF;" d="M105.211,19.913c-0.016,0.048-0.034,0.094-0.057,0.138
				c0.109,0.063,0.206,0.152,0.279,0.267c0.246,0.381,0.136,0.888-0.245,1.133c-0.043,0.027-0.086,0.051-0.132,0.069
				c0.043,0.118,0.06,0.249,0.042,0.383c-0.057,0.45-0.467,0.769-0.916,0.711c-0.049-0.006-0.099-0.017-0.146-0.031
				c-0.043,0.118-0.114,0.229-0.213,0.321c-0.332,0.307-0.852,0.287-1.159-0.045c-0.034-0.037-0.064-0.076-0.091-0.117
				c-0.109,0.063-0.235,0.102-0.37,0.108c-0.452,0.021-0.837-0.327-0.859-0.78c-0.002-0.049,0-0.1,0.006-0.148
				c-0.125-0.021-0.246-0.072-0.353-0.154c-0.361-0.273-0.431-0.788-0.158-1.148c0.031-0.041,0.064-0.077,0.101-0.11
				c-0.081-0.097-0.141-0.214-0.172-0.345c-0.1-0.442,0.177-0.882,0.619-0.982c0.049-0.012,0.099-0.018,0.147-0.02
				c0-0.126,0.028-0.255,0.091-0.375c0.207-0.402,0.701-0.562,1.104-0.354c0.045,0.022,0.087,0.05,0.126,0.079
				c0.081-0.097,0.186-0.176,0.31-0.229c0.418-0.175,0.898,0.021,1.074,0.438c0.019,0.047,0.034,0.094,0.045,0.142
				c0.124-0.023,0.255-0.016,0.385,0.025C105.102,19.02,105.345,19.48,105.211,19.913z"/>
			<path style="fill-rule:evenodd;clip-rule:evenodd;fill:#FFFFFF;" d="M111.687,18.416c0.045,0.023,0.091,0.042,0.138,0.057
				c-0.031,0.122-0.036,0.253-0.005,0.386c0.1,0.441,0.539,0.718,0.981,0.617c0.049-0.011,0.096-0.026,0.141-0.046
				c0.055,0.114,0.136,0.218,0.244,0.299c0.361,0.274,0.875,0.204,1.149-0.157c0.031-0.04,0.058-0.082,0.08-0.126
				c0.114,0.053,0.243,0.079,0.378,0.073c0.452-0.022,0.802-0.407,0.779-0.86c-0.002-0.05-0.009-0.099-0.021-0.147
				c0.122-0.033,0.238-0.096,0.337-0.188c0.332-0.309,0.352-0.827,0.044-1.159c-0.034-0.037-0.071-0.07-0.11-0.1
				c0.071-0.104,0.12-0.226,0.137-0.36c0.057-0.45-0.261-0.86-0.711-0.917c-0.05-0.007-0.1-0.008-0.149-0.005
				c-0.012-0.126-0.054-0.251-0.127-0.365c-0.246-0.381-0.753-0.49-1.133-0.245c-0.043,0.028-0.082,0.059-0.118,0.092
				c-0.09-0.088-0.203-0.157-0.331-0.197c-0.433-0.134-0.892,0.108-1.026,0.541c-0.015,0.048-0.025,0.097-0.031,0.146
				c-0.126-0.01-0.256,0.01-0.381,0.061c-0.417,0.176-0.614,0.656-0.438,1.074c0.019,0.047,0.043,0.091,0.069,0.132
				c-0.103,0.073-0.19,0.171-0.252,0.291C111.125,17.716,111.285,18.21,111.687,18.416z"/>
			<path style="fill-rule:evenodd;clip-rule:evenodd;fill:#FFFFFF;" d="M106.193,19.5c0.045,0.023,0.091,0.042,0.138,0.056
				c-0.032,0.123-0.035,0.254-0.005,0.387c0.1,0.441,0.54,0.718,0.981,0.617c0.049-0.011,0.096-0.026,0.142-0.045
				c0.054,0.113,0.136,0.217,0.244,0.298c0.361,0.274,0.875,0.204,1.149-0.157c0.031-0.04,0.058-0.082,0.079-0.126
				c0.115,0.052,0.244,0.079,0.379,0.072c0.452-0.023,0.801-0.407,0.778-0.858c-0.002-0.051-0.009-0.101-0.02-0.149
				c0.121-0.033,0.237-0.096,0.336-0.188c0.332-0.308,0.352-0.827,0.045-1.159c-0.035-0.038-0.071-0.07-0.111-0.1
				c0.072-0.104,0.12-0.227,0.137-0.359c0.057-0.45-0.262-0.86-0.711-0.918c-0.05-0.006-0.1-0.008-0.148-0.004
				c-0.012-0.127-0.054-0.251-0.127-0.365c-0.246-0.381-0.753-0.49-1.134-0.245c-0.042,0.027-0.081,0.059-0.117,0.092
				c-0.09-0.089-0.203-0.157-0.332-0.197c-0.432-0.134-0.892,0.108-1.025,0.541c-0.016,0.048-0.025,0.097-0.031,0.146
				c-0.127-0.01-0.256,0.01-0.38,0.061c-0.418,0.175-0.614,0.656-0.439,1.073c0.02,0.047,0.043,0.091,0.07,0.132
				c-0.103,0.073-0.19,0.172-0.252,0.292C105.632,18.799,105.791,19.293,106.193,19.5z"/>
			
				<ellipse transform="matrix(0.2434 -0.9699 0.9699 0.2434 49.7441 138.7087)" style="fill-rule:evenodd;clip-rule:evenodd;fill:#FFD8B8;" cx="113.777" cy="37.471" rx="19.555" ry="20.202"/>
			<path style="fill-rule:evenodd;clip-rule:evenodd;fill:#FCF7F9;" d="M105.59,74.917c1.387-0.356,9.081-12.007,15.565-11.421
				c0.898,1.806,1.585,3.801,1.87,5.772l3.769,20.827l-3.767,1.863l-7.857,2.689L105.59,74.917z"/>
			
				<ellipse transform="matrix(-0.2512 -0.9679 0.9679 -0.2512 -76.2835 249.1662)" style="fill-rule:evenodd;clip-rule:evenodd;fill:#FFFFFF;" cx="58.237" cy="154.09" rx="4.212" ry="8.388"/>
			<path style="fill-rule:evenodd;clip-rule:evenodd;fill:#fffff;" d="M131.405,28.224c-5.305-2.037-24.704,10.379-32.525,22.232
				c-4.36-4.718-6.341-11.351-4.698-17.901c2.628-10.475,13.531-16.767,24.354-14.051C124.23,19.933,128.766,23.571,131.405,28.224z
				"/>
			
				<ellipse transform="matrix(0.0181 -0.9998 0.9998 0.0181 66.2653 146.8731)" style="fill-rule:evenodd;clip-rule:evenodd;fill:#FFD8B8;" cx="107.913" cy="39.698" rx="5.761" ry="3.687"/>
			<path style="fill-rule:evenodd;clip-rule:evenodd;fill:#fffff;" d="M109.264,67.143c-0.553-25.741,14.879-39.269,22.35-38.88
				C121.931,23.393,105.09,37.753,109.264,67.143z"/>
			<path style="fill-rule:evenodd;clip-rule:evenodd;fill:#F9EDF2;" d="M104.746,0.572C89,22.212,84.985,45.71,90.627,73.836
				c-18.708,3.636-31.505,2.062-44.893-7.406C50.617,40.688,70.468-5.672,104.746,0.572z"/>
			
				<ellipse transform="matrix(0.2433 -0.9699 0.9699 0.2433 57.0813 155.3786)" style="fill-rule:evenodd;clip-rule:evenodd;fill:#5C4033;" cx="128.126" cy="41.105" rx="2.467" ry="1.41"/>
			<path style="fill-rule:evenodd;clip-rule:evenodd;fill:#E7B791;" d="M127.958,51.63c-2.081-1.221-4.578-3.048-6.094-4.523
				c1.113,2.313,3.024,4.118,5.241,5.265C127.5,52.03,127.651,51.908,127.958,51.63z"/>
			
				<ellipse transform="matrix(0.1218 -0.9926 0.9926 0.1218 -89.6439 141.5164)" style="fill-rule:evenodd;clip-rule:evenodd;fill:#FFFFFF;" cx="35.147" cy="121.414" rx="4.212" ry="8.387"/>
			<path style="fill-rule:evenodd;clip-rule:evenodd;fill:#FCF7F9;" d="M125.884,86.774c3.626,7.996-12.387,37.353-14.799,42.311
				c-4.379,9.002-17.239,30.666-17.341,39.286c-0.101,8.62-6.535,6.4-10.262,1c-3.506-5.081-6.249-7.826-9.939-8.953
				c-5.276-1.611-6.936-3.983-10.522-9.166c-3.339-4.825-5.785-7.939-12.221-12.722c-5.048-3.75-6.558-6.875-7.329-10.213
				c-1.11-4.813-3.058-6.204-7.563-10.198c-4.505-3.994-6.844-10.699,1.76-10.16c8.604,0.54,41.406-14.329,57.644-12.478
				c-2.629-8.971,3.538-13.277,11.769-14.594c4.389-0.701,6.619-0.93,7.979-1.404L125.884,86.774z"/>
			<path style="fill-rule:evenodd;clip-rule:evenodd;fill:#FFE0E9;" d="M43.869,129.784c-0.155-0.486-0.284-0.975-0.398-1.467
				c-1.046-4.533-2.834-6.031-6.803-9.527c10.25-1.85,38.732-13,49.74-19.97C76.617,109.794,52.583,125.259,43.869,129.784z"/>
			<path style="fill-rule:evenodd;clip-rule:evenodd;fill:#FFE0E9;" d="M82.939,168.596c-3.253-4.587-5.9-7.109-9.396-8.178
				c-0.261-0.08-0.512-0.161-0.756-0.245c5.441-8.66,22.292-30.872,33.756-39.661C98.783,130.96,85.563,158.487,82.939,168.596z"/>
			<path style="fill-rule:evenodd;clip-rule:evenodd;fill:#FFE0E9;" d="M62.624,150.683c-2.715-3.892-4.952-6.701-9.49-10.352
				c13.543-7.475,37.707-25.729,43.57-30.877C91.123,114.929,71.062,137.741,62.624,150.683z"/>
			<g>
				<path style="fill-rule:evenodd;clip-rule:evenodd;fill:#f1cc8f;" d="M180.259,62.632c-12.593-12.963-44.723-7.042-39.512-27.826
					c5.542,7.521,8.123,5.316,17.47,6.125C167.644,41.745,178.702,47.677,180.259,62.632z"/>
				<path style="fill-rule:evenodd;clip-rule:evenodd;fill:#f1cc8f;" d="M180.773,63.659c-10.26-14.877-42.927-14.386-34.33-34.014
					c4.213,8.34,7.125,6.594,16.207,8.947C171.81,40.965,181.726,48.654,180.773,63.659z"/>
				<g>
					<polygon style="fill-rule:evenodd;clip-rule:evenodd;fill:#323232;" points="116.308,170.243 118.847,150.167 120.719,137.435 
						122.049,127.801 138.66,131.593 129.169,170.335 					"/>
					<polygon style="fill-rule:evenodd;clip-rule:evenodd;fill:#323232;" points="121.335,133.189 121.539,133.22 120.719,137.436 
						120.719,137.435 					"/>
				</g>
				<g>
					<path style="fill-rule:evenodd;clip-rule:evenodd;fill:#323232;" d="M133.759,204.808l-17.451-34.564l12.409-3.288
						l13.243,34.25C139.226,202.407,136.492,203.607,133.759,204.808z"/>
					
						<ellipse transform="matrix(-0.4021 -0.9156 0.9156 -0.4021 -0.5926 410.8521)" style="fill-rule:evenodd;clip-rule:evenodd;fill:#1A1A1A;" cx="133.853" cy="205.62" rx="4.619" ry="9.197"/>
				</g>
				
					<rect x="153.344" y="81.238" transform="matrix(-0.9078 -0.4194 0.4194 -0.9078 267.4908 226.9404)" style="fill-rule:evenodd;clip-rule:evenodd;fill:#FFFFFF;" width="10.696" height="5.655"/>
				<polygon style="fill-rule:evenodd;clip-rule:evenodd;fill:#1A1A1A;" points="124.137,123.243 141.561,131.294 140.481,136.317 
					122.049,127.802 				"/>
				<path style="fill-rule:evenodd;clip-rule:evenodd;fill:#FFFFFF;" d="M158.199,82.759c-9.249,17.025-17.373,25.79-28.071,28.333
					l4.68-9.33l16.301-16.164l3.915-6.341L158.199,82.759z"/>
				<g>
					<path style="fill-rule:evenodd;clip-rule:evenodd;fill:#212E36;" d="M152.686,83.112c0.752-0.404,3.101-2.113,3.042-1.405
						c-0.081,0.975-2.435,5.597-3.175,6.235c-0.537,0.465-0.537-2.439-0.653-3.286C151.983,84.183,152.352,83.458,152.686,83.112z"
						/>
					<path style="fill-rule:evenodd;clip-rule:evenodd;fill:#405059;" d="M152.191,82.404l0.54,0.275
						c0.138,0.07,0.194,0.241,0.123,0.38l-0.898,1.764c-0.071,0.139-0.241,0.194-0.38,0.124l-0.54-0.275
						c-0.139-0.07-0.194-0.241-0.124-0.38l0.898-1.764C151.882,82.39,152.053,82.334,152.191,82.404z"/>
				</g>
				<polygon style="fill-rule:evenodd;clip-rule:evenodd;fill:#323232;" points="141.769,134.718 144.678,123.908 163.858,85.727 
					155.777,83.961 132.187,106.893 122.9,125.942 				"/>
				<path style="fill-rule:evenodd;clip-rule:evenodd;fill:#1A1A1A;" d="M152.72,87.878c-12.729,4.424-32.194,7.85-48.87,6.082
					l-0.387,4.582c15.317,3.721,37.813,3.672,47.995,1.41C163.619,97.25,165.558,83.417,152.72,87.878z"/>
				<path style="fill-rule:evenodd;clip-rule:evenodd;fill:#FFD8B8;" d="M101.422,90.794c-1.436-0.883-2.287-0.453-2.517,0.717
					c-1.944-1.567-4.562-1.184-5.248-0.067c-1.336,2.173-0.024,5.406,2.929,7.221c2.953,1.815,6.429,1.524,7.765-0.649
					C105.686,95.841,104.375,92.608,101.422,90.794z"/>
				<g>
					
						<ellipse transform="matrix(0.2215 -0.9752 0.9752 0.2215 66.2837 206.2372)" style="fill-rule:evenodd;clip-rule:evenodd;fill:#FFD8B8;" cx="162.309" cy="61.605" rx="21.443" ry="22.152"/>
					<path style="fill-rule:evenodd;clip-rule:evenodd;fill:#f1cc8f;" d="M149.652,43.821c2.123,15.702,27.617,27.347,20.789,37.869
						c6.604-2.451,11.831-7.958,13.47-15.179c2.624-11.548-4.922-23.106-16.852-25.817C160.78,39.268,154.54,40.578,149.652,43.821z
						"/>
					
						<ellipse transform="matrix(0.2215 -0.9752 0.9752 0.2215 57.422 188.019)" style="fill-rule:evenodd;clip-rule:evenodd;fill:#A1CAF1;" cx="146.473" cy="58.044" rx="2.705" ry="1.546"/>
					<path style="fill-rule:evenodd;clip-rule:evenodd;fill:#E7B791;" d="M141.242,68.016c3.368,0.728,6.394-0.141,8.379-0.997
						c-2.235,1.711-4.999,2.528-7.736,2.551C141.706,69.237,141.409,68.401,141.242,68.016z"/>
				</g>
				
					<ellipse transform="matrix(0.4359 -0.9 0.9 0.4359 34.151 187.8665)" style="fill-rule:evenodd;clip-rule:evenodd;fill:#FFD8B8;" cx="166.94" cy="66.69" rx="6.317" ry="4.043"/>
				<path style="fill-rule:evenodd;clip-rule:evenodd;fill:#f1cc8f;" d="M144.838,47.755c4.363,2.455,8.32,5.197,12.618,10.533
					c4.724,5.865,22.419-12.246,14.086-16.228C163.211,38.079,152.868,35.29,144.838,47.755z"/>
				<path style="fill-rule:evenodd;clip-rule:evenodd;fill:#f1cc8f;" d="M140.55,65.195c3.845-0.077,10.455-0.48,11.322,1.646
					c0.866,2.126-0.54,9.981,2.198,12.128c2.738,2.145,6.577-0.355,7.257-5.914c0.681-5.559,1.727-8.526-0.752-11.487
					c-2.479-2.961,4.248-7.193,3.604-2.814c-0.645,4.378-1.157,20.866-4.648,23.065c-2.031,1.28-8.25-0.295-11.929-3.318
					c-1.725-1.418-3.409-3.263-4.395-6.432c0.694,1.01,5.396,5.494,7.035,5.393c1.559-0.097,1.44-8.409,0.368-10.145
					c-1.072-1.735-9.086-0.805-9.774-0.91C140.146,66.302,140.099,65.204,140.55,65.195z"/>
			</g>
			<g>
				<path style="fill-rule:evenodd;clip-rule:evenodd;fill:#FFD8B8;" d="M114.07,61.929c9.233,8.109,24.499,17.69,39.193,21.928
					l-1.247,4.003c-14.218-2.119-33.205-9.89-41.029-15.298C101.642,66.101,104.756,53.748,114.07,61.929z"/>
				<path style="fill-rule:evenodd;clip-rule:evenodd;fill:#FFD8B8;" d="M158.717,80.98c-1.574-0.604-2.332-0.025-2.342,1.167
					c-2.199-1.184-4.702-0.326-5.171,0.897c-0.914,2.382,0.968,5.318,4.204,6.56c3.236,1.242,6.6,0.318,7.514-2.063
					C163.835,85.159,161.953,82.223,158.717,80.98z"/>
			</g>
		</g>
		<path style="fill-rule:evenodd;clip-rule:evenodd;fill:#1A1A1A;" d="M140.228,160.094c-5.675-4.738-8.5-19.4-7.817-27.505
			l12.266-8.681C144.678,123.908,142.932,149.278,140.228,160.094z"/>
		<path style="fill-rule:evenodd;clip-rule:evenodd;fill:#323232;" d="M134.306,131.247l10.371-7.339c0,0-1.359,21.648-3.809,33.277
			C135.773,153.271,134.216,138.616,134.306,131.247z"/>
	</g>
</g>
</svg>