<?xml version="1.0" encoding="iso-8859-1"?>
<!-- Uploaded to: SVG Repo, www.svgrepo.com, Generator: SVG Repo Mixer Tools -->
<!DOCTYPE svg PUBLIC "-//W3C//DTD SVG 1.1//EN" "http://www.w3.org/Graphics/SVG/1.1/DTD/svg11.dtd">
<svg version="1.1" id="Capa_1" xmlns="http://www.w3.org/2000/svg" xmlns:xlink="http://www.w3.org/1999/xlink" 
	 viewBox="0 0 217.748 217.748" xml:space="preserve">
<g>
	<g>
		<g>
			<path style="fill-rule:evenodd;clip-rule:evenodd;fill:#F9EDF2;" d="M89.206,41.986c18.793-1.537,35.136,34.871,37.625,82.459
				c-9.411,13.283-21.543,21.758-34.948,22.855c-13.404,1.096-25.915-5.363-35.961-17.057
				C55.987,82.447,70.413,43.523,89.206,41.986z"/>
			<g>
				<path style="fill-rule:evenodd;clip-rule:evenodd;fill:#F2C7A4;" d="M99.845,96.302c7.835-9.355,16.989-24.736,20.85-39.422
					l4.004,1.143c-1.771,14.166-9.04,33.197-14.227,41.09C104.277,108.541,91.942,105.74,99.845,96.302z"/>
				<path style="fill-rule:evenodd;clip-rule:evenodd;fill:#F2C7A4;" d="M119.654,51.801c0.644-1.545,1.579-1.693,2.443-0.885
					c0.655-2.393,2.987-3.604,4.188-3.102c2.339,0.975,3.16,4.34,1.836,7.518c-1.324,3.176-4.293,4.961-6.631,3.984
					C119.151,58.342,118.33,54.976,119.654,51.801z"/>
			</g>
			<g>
				
					<rect x="97.663" y="82.479" transform="matrix(-0.9176 0.3975 -0.3975 -0.9176 234.3803 132.6755)" style="fill-rule:evenodd;clip-rule:evenodd;fill:#E7B791;" width="11.552" height="16.3"/>
				
					<ellipse transform="matrix(-0.3975 -0.9176 0.9176 -0.3975 70.5634 169.0371)" style="fill-rule:evenodd;clip-rule:evenodd;fill:#FFF4C7;" cx="90.78" cy="61.351" rx="10.804" ry="19.372"/>
				
					<ellipse transform="matrix(-0.3975 -0.9176 0.9176 -0.3975 71.9882 159.6297)" style="fill-rule:evenodd;clip-rule:evenodd;fill:#fffff;" cx="88.402" cy="56.18" rx="12.376" ry="16.472"/>
				<g>
					<path style="fill-rule:evenodd;clip-rule:evenodd;fill:#FFFFFF;" d="M77.526,58.767c-0.015,0.049-0.033,0.094-0.055,0.137
						c0.109,0.062,0.206,0.15,0.28,0.262c0.248,0.375,0.144,0.881-0.231,1.129c-0.041,0.027-0.085,0.051-0.13,0.07
						c0.044,0.117,0.062,0.246,0.047,0.379c-0.052,0.447-0.455,0.768-0.903,0.717c-0.05-0.006-0.098-0.016-0.145-0.031
						c-0.041,0.119-0.111,0.23-0.208,0.322c-0.327,0.309-0.842,0.295-1.151-0.031c-0.034-0.037-0.065-0.076-0.091-0.117
						c-0.108,0.064-0.232,0.104-0.366,0.113c-0.449,0.025-0.835-0.316-0.862-0.766c-0.003-0.051-0.001-0.1,0.004-0.146
						c-0.124-0.021-0.245-0.07-0.352-0.15c-0.361-0.268-0.437-0.777-0.169-1.139c0.03-0.041,0.063-0.078,0.098-0.111
						c-0.082-0.096-0.143-0.211-0.174-0.342c-0.104-0.438,0.166-0.877,0.603-0.98c0.049-0.012,0.098-0.018,0.146-0.021
						c-0.002-0.125,0.026-0.254,0.086-0.373c0.201-0.402,0.69-0.564,1.093-0.363c0.044,0.021,0.087,0.047,0.125,0.076
						c0.079-0.096,0.183-0.176,0.306-0.229c0.413-0.18,0.892,0.01,1.071,0.422c0.02,0.047,0.035,0.094,0.046,0.141
						c0.123-0.023,0.253-0.018,0.382,0.02C77.409,57.883,77.654,58.336,77.526,58.767z"/>
					<path style="fill-rule:evenodd;clip-rule:evenodd;fill:#FFFFFF;" d="M80.964,54.353c-0.014,0.049-0.033,0.094-0.054,0.139
						c0.109,0.061,0.205,0.148,0.28,0.26c0.248,0.377,0.144,0.881-0.231,1.129c-0.042,0.027-0.085,0.051-0.13,0.07
						c0.045,0.117,0.063,0.246,0.047,0.381c-0.051,0.445-0.456,0.766-0.902,0.715c-0.05-0.006-0.099-0.016-0.145-0.029
						c-0.042,0.117-0.111,0.229-0.209,0.32c-0.327,0.309-0.842,0.295-1.151-0.031c-0.035-0.037-0.066-0.076-0.092-0.117
						c-0.108,0.064-0.232,0.105-0.366,0.113c-0.449,0.025-0.835-0.316-0.861-0.766c-0.003-0.049-0.001-0.098,0.004-0.146
						c-0.124-0.021-0.245-0.07-0.353-0.15c-0.361-0.268-0.437-0.777-0.169-1.139c0.03-0.041,0.063-0.078,0.099-0.111
						c-0.082-0.094-0.143-0.211-0.174-0.34c-0.104-0.438,0.165-0.877,0.603-0.982c0.049-0.012,0.098-0.018,0.146-0.021
						c-0.001-0.125,0.026-0.252,0.086-0.373c0.201-0.402,0.69-0.564,1.093-0.363c0.045,0.021,0.087,0.049,0.126,0.078
						c0.079-0.098,0.183-0.178,0.306-0.231c0.413-0.18,0.892,0.01,1.071,0.424c0.02,0.045,0.036,0.092,0.046,0.139
						c0.124-0.024,0.254-0.018,0.382,0.021C80.848,53.47,81.093,53.924,80.964,54.353z"/>
					<path style="fill-rule:evenodd;clip-rule:evenodd;fill:#FFFFFF;" d="M85.517,51.16c-0.015,0.049-0.033,0.094-0.055,0.137
						c0.109,0.063,0.207,0.149,0.28,0.262c0.248,0.375,0.144,0.881-0.231,1.129c-0.042,0.027-0.085,0.051-0.13,0.07
						c0.044,0.115,0.062,0.246,0.047,0.379c-0.052,0.447-0.456,0.768-0.903,0.717c-0.05-0.006-0.099-0.016-0.145-0.031
						c-0.042,0.119-0.111,0.23-0.209,0.322c-0.327,0.309-0.843,0.295-1.152-0.033c-0.034-0.035-0.065-0.074-0.091-0.115
						c-0.108,0.064-0.232,0.104-0.366,0.111c-0.449,0.027-0.834-0.314-0.862-0.764c-0.002-0.051-0.001-0.1,0.005-0.148
						c-0.124-0.02-0.245-0.068-0.353-0.149c-0.361-0.267-0.437-0.779-0.169-1.141c0.03-0.039,0.064-0.076,0.098-0.109
						c-0.082-0.096-0.142-0.211-0.173-0.342c-0.105-0.438,0.165-0.877,0.603-0.98c0.049-0.012,0.098-0.02,0.147-0.021
						c-0.001-0.125,0.025-0.254,0.086-0.373c0.201-0.402,0.69-0.566,1.093-0.363c0.045,0.022,0.087,0.047,0.125,0.076
						c0.08-0.096,0.183-0.176,0.306-0.23c0.413-0.178,0.892,0.012,1.071,0.424c0.02,0.047,0.036,0.094,0.046,0.141
						c0.123-0.023,0.254-0.018,0.382,0.02C85.4,50.275,85.645,50.728,85.517,51.16z"/>
					<path style="fill-rule:evenodd;clip-rule:evenodd;fill:#FFFFFF;" d="M97.503,50.115c0.045,0.021,0.091,0.039,0.138,0.053
						c-0.03,0.123-0.033,0.252-0.001,0.383c0.104,0.438,0.544,0.709,0.98,0.604c0.049-0.012,0.096-0.027,0.141-0.047
						c0.055,0.113,0.138,0.215,0.245,0.295c0.361,0.268,0.871,0.191,1.14-0.17c0.03-0.039,0.056-0.082,0.077-0.125
						c0.115,0.051,0.243,0.074,0.376,0.066c0.449-0.027,0.792-0.412,0.765-0.861c-0.003-0.051-0.01-0.098-0.022-0.146
						c0.121-0.035,0.235-0.098,0.332-0.19c0.326-0.31,0.341-0.824,0.031-1.152c-0.034-0.035-0.071-0.068-0.11-0.098
						c0.07-0.103,0.117-0.226,0.132-0.359c0.051-0.447-0.269-0.852-0.716-0.902c-0.05-0.006-0.099-0.006-0.147-0.004
						c-0.014-0.125-0.057-0.248-0.13-0.359c-0.248-0.375-0.753-0.479-1.128-0.232c-0.043,0.029-0.081,0.059-0.116,0.094
						c-0.091-0.088-0.203-0.154-0.331-0.193c-0.431-0.129-0.885,0.117-1.013,0.549c-0.014,0.047-0.024,0.096-0.029,0.145
						c-0.125-0.008-0.254,0.012-0.377,0.066c-0.413,0.178-0.603,0.658-0.423,1.07c0.02,0.045,0.043,0.09,0.07,0.129
						c-0.101,0.074-0.187,0.174-0.246,0.293C96.938,49.424,97.101,49.914,97.503,50.115z"/>
					<path style="fill-rule:evenodd;clip-rule:evenodd;fill:#FFFFFF;" d="M91.932,49.603c0.045,0.023,0.091,0.041,0.138,0.055
						c-0.03,0.121-0.033,0.252-0.001,0.383c0.104,0.438,0.543,0.707,0.981,0.604c0.049-0.012,0.095-0.029,0.14-0.047
						c0.055,0.111,0.138,0.213,0.245,0.293c0.362,0.268,0.872,0.193,1.14-0.168c0.03-0.041,0.056-0.082,0.077-0.127
						c0.115,0.051,0.243,0.076,0.377,0.068c0.449-0.027,0.791-0.412,0.765-0.861c-0.003-0.051-0.011-0.1-0.022-0.146
						c0.121-0.035,0.235-0.098,0.332-0.191c0.327-0.309,0.34-0.824,0.031-1.15c-0.034-0.037-0.071-0.07-0.11-0.098
						c0.07-0.103,0.117-0.227,0.132-0.359c0.051-0.447-0.27-0.852-0.716-0.902c-0.05-0.006-0.099-0.008-0.147-0.004
						c-0.014-0.125-0.057-0.248-0.13-0.361c-0.248-0.375-0.753-0.478-1.128-0.23c-0.042,0.027-0.081,0.059-0.116,0.092
						c-0.091-0.086-0.203-0.154-0.332-0.191c-0.431-0.129-0.884,0.117-1.013,0.547c-0.014,0.049-0.024,0.098-0.029,0.145
						c-0.125-0.008-0.254,0.014-0.377,0.066c-0.413,0.178-0.603,0.658-0.423,1.07c0.02,0.047,0.043,0.09,0.07,0.131
						c-0.101,0.074-0.187,0.172-0.247,0.293C91.366,48.914,91.529,49.402,91.932,49.603z"/>
					<path style="fill-rule:evenodd;clip-rule:evenodd;fill:#FFFFFF;" d="M86.488,50.74c0.045,0.021,0.091,0.039,0.138,0.053
						c-0.03,0.123-0.032,0.252-0.001,0.383c0.104,0.438,0.543,0.709,0.981,0.604c0.048-0.012,0.095-0.027,0.14-0.047
						c0.055,0.113,0.138,0.215,0.245,0.295c0.362,0.268,0.872,0.191,1.14-0.17c0.03-0.039,0.056-0.082,0.077-0.125
						c0.115,0.051,0.243,0.074,0.377,0.066c0.449-0.025,0.791-0.412,0.764-0.861c-0.003-0.049-0.01-0.098-0.022-0.146
						c0.121-0.035,0.235-0.098,0.333-0.19c0.327-0.309,0.341-0.824,0.031-1.152c-0.034-0.035-0.071-0.068-0.11-0.098
						c0.07-0.103,0.117-0.226,0.132-0.359c0.052-0.447-0.269-0.852-0.716-0.902c-0.05-0.006-0.099-0.006-0.147-0.004
						c-0.014-0.125-0.056-0.248-0.13-0.359c-0.248-0.377-0.753-0.479-1.128-0.232c-0.042,0.029-0.081,0.059-0.116,0.094
						c-0.091-0.088-0.203-0.156-0.331-0.193c-0.431-0.129-0.885,0.117-1.013,0.549c-0.015,0.047-0.024,0.096-0.03,0.145
						c-0.125-0.008-0.254,0.012-0.377,0.066c-0.413,0.178-0.602,0.656-0.424,1.07c0.02,0.045,0.044,0.09,0.071,0.129
						c-0.101,0.074-0.187,0.172-0.247,0.293C85.922,50.049,86.086,50.539,86.488,50.74z"/>
				</g>
				
					<ellipse transform="matrix(-0.3975 -0.9176 0.9176 -0.3975 66.9798 188.4044)" style="fill-rule:evenodd;clip-rule:evenodd;fill:#FFD8B8;" cx="95.346" cy="72.212" rx="19.419" ry="25.192"/>
				<path style="fill-rule:evenodd;clip-rule:evenodd;fill:#fffff;" d="M73.886,84.609c0.626-2.131,4.218,4.479,1.956-4.018
					c-2.27-8.527,0.068-20.818,12.188-23.59c12.686-8.449,23.765,0.791,26.966,6.971c2.034,3.928,2.69-0.545,3.794,0.232
					C115.507,50.258,99.998,45.709,85.86,52.17C74.346,57.433,65.123,68.345,73.886,84.609z"/>
				<g>
					
						<ellipse transform="matrix(-0.3974 -0.9176 0.9176 -0.3974 79.7504 189.6805)" style="fill-rule:evenodd;clip-rule:evenodd;fill:#5C4033;" cx="102.152" cy="68.656" rx="2.45" ry="1.4"/>
					
						<ellipse transform="matrix(-0.3974 -0.9176 0.9176 -0.3974 54.5236 185.2909)" style="fill-rule:evenodd;clip-rule:evenodd;fill:#5C4033;" cx="88.098" cy="74.744" rx="2.45" ry="1.4"/>
				</g>
				<g>
					<path style="fill-rule:evenodd;clip-rule:evenodd;fill:#fffff;" d="M119.189,89.07c-5.414-24.988-23.443-34.488-30.568-32.387
						C96.848,49.744,116.43,59.722,119.189,89.07z"/>
					<path style="fill-rule:evenodd;clip-rule:evenodd;fill:#fffff;" d="M91.334,101.134c-14.524-21.041-9.12-40.691-2.713-44.451
						C77.931,57.937,71.815,79.047,91.334,101.134z"/>
				</g>
				<path style="fill-rule:evenodd;clip-rule:evenodd;fill:#E7B791;" d="M106.344,75.431c-2.171,4.025-10.851,7.666-16.171,7.006
					C96.483,85.625,105.267,82.025,106.344,75.431z"/>
				
					<ellipse transform="matrix(-0.5944 -0.8042 0.8042 -0.5944 49.0351 189.184)" style="fill-rule:evenodd;clip-rule:evenodd;fill:#FFD8B8;" cx="72.23" cy="82.225" rx="5.721" ry="3.662"/>
				
					<ellipse transform="matrix(-0.1801 -0.9836 0.9836 -0.1801 78.4969 190.3158)" style="fill-rule:evenodd;clip-rule:evenodd;fill:#FFD8B8;" cx="118.566" cy="62.443" rx="5.72" ry="3.661"/>
			</g>
			<g>
				<g>
					<path style="fill:#FFE0E9;" d="M32.486,17.162c0.77,1.871,1.526,2.996,2.299,3.313l0.007,0.002
						c0.577,0.236,1.412-0.098,2.548-1.041c2.706-2.248,4.845-1.766,6.554-0.164c1.293,1.211,2.108,3.076,2.724,4.596
						c0.127,0.314,0.364,0.406,0.667,0.351c0.944-0.174,2.206-0.904,3.598-1.914l2.234,3.07c-1.828,1.328-3.596,2.309-5.146,2.592
						c-2.192,0.4-3.917-0.307-4.877-2.676c-0.472-1.164-1.077-2.576-1.797-3.25c-0.304-0.285-0.771-0.299-1.523,0.324
						c-2.321,1.928-4.433,2.441-6.422,1.627l0,0c-1.789-0.736-3.216-2.555-4.381-5.387L32.486,17.162z"/>
					<path style="fill:#FFE0E9;" d="M34.154,11.75c1.561,1.281,2.763,1.912,3.602,1.824c0.618-0.064,1.194-0.75,1.745-2.115
						c1.321-3.27,3.438-3.858,5.705-3.256c1.709,0.453,3.309,1.709,4.57,2.754c0.263,0.219,0.517,0.189,0.756-0.002
						c0.737-0.59,1.5-1.834,2.252-3.393l3.435,1.65c-0.976,2.023-2.07,3.723-3.314,4.717c-1.741,1.391-3.594,1.588-5.559-0.041
						c-0.969-0.805-2.172-1.762-3.129-2.016c-0.398-0.105-0.813,0.102-1.177,1.002c-1.133,2.803-2.752,4.258-4.89,4.482
						c-1.918,0.203-4.038-0.725-6.411-2.672L34.154,11.75z"/>
				</g>
				<path style="fill-rule:evenodd;clip-rule:evenodd;fill:#FFE0E9;" d="M16.322,2.625c0.286,0.053,0.56,0.129,0.824,0.23
					c0.286-0.668,0.732-1.281,1.331-1.775c2.008-1.658,4.979-1.375,6.638,0.633c0.186,0.225,0.346,0.461,0.483,0.705
					c0.649-0.326,1.383-0.51,2.16-0.504c2.604,0.021,4.699,2.148,4.679,4.752c-0.002,0.291-0.031,0.576-0.083,0.851
					c0.708,0.166,1.387,0.498,1.978,1.002c1.982,1.689,2.219,4.666,0.53,6.648c-0.189,0.221-0.394,0.42-0.611,0.598
					c0.435,0.582,0.742,1.273,0.871,2.039c0.432,2.568-1.299,5-3.867,5.434c-0.287,0.047-0.572,0.068-0.853,0.064
					c-0.04,0.727-0.25,1.453-0.644,2.123c-1.32,2.244-4.209,2.994-6.455,1.676c-0.251-0.146-0.482-0.314-0.695-0.498
					c-0.497,0.529-1.125,0.953-1.857,1.213c-2.454,0.871-5.15-0.412-6.022-2.865c-0.098-0.273-0.168-0.551-0.213-0.828
					c-0.722,0.086-1.473,0.006-2.201-0.266c-2.44-0.91-3.681-3.625-2.771-6.066c0.102-0.271,0.226-0.529,0.369-0.77
					c-0.608-0.398-1.133-0.943-1.516-1.619c-1.285-2.266-0.49-5.143,1.776-6.428c0.252-0.143,0.514-0.26,0.779-0.354
					c-0.21-0.695-0.262-1.449-0.122-2.215C11.302,3.845,13.761,2.152,16.322,2.625z"/>
			</g>
			<g>
				<path style="fill-rule:evenodd;clip-rule:evenodd;fill:#FFC2D4;" d="M123.568,29.695C100.559,13.328,78.93,9.375,60.005,8.256
					C82.568,7.886,101.527,10.666,123.568,29.695z"/>
				<path style="fill-rule:evenodd;clip-rule:evenodd;fill:#FFC2D4;" d="M115.35,51.717C92.34,35.349,70.711,31.396,51.786,30.277
					C74.349,29.906,93.309,32.687,115.35,51.717z"/>
				<path style="fill-rule:evenodd;clip-rule:evenodd;fill:#FFC2D4;" d="M119.382,39.929c-23.009-16.367-44.639-20.32-63.563-21.437
					C78.381,18.121,97.341,20.9,119.382,39.929z"/>
			</g>
			<path style="fill-rule:evenodd;clip-rule:evenodd;fill:#FFD8B8;" d="M102.226,128.162l-6.107-20.906
				c-0.495-5.459-1.82-5.32,1.931-10.717c2.57-4.045,7.877-2.236,11.714-3.23c2.803,1.094,4.504,5.391,4.362,11.307l-0.082,22.346
				L102.226,128.162z"/>
			<path style="fill-rule:evenodd;clip-rule:evenodd;fill:#FCF7F9;" d="M96.118,107.256c1.417-0.121,10.882-10.252,17.134-8.601
				c0.579,1.916,0.921,3.984,0.873,5.961l0.236,21.016l-3.997,1.199l-8.139,1.332L96.118,107.256z"/>
			
				<ellipse transform="matrix(-0.0402 -0.9992 0.9992 -0.0402 -95.0873 335.7656)" style="fill-rule:evenodd;clip-rule:evenodd;fill:#FFFFFF;" cx="113.729" cy="213.554" rx="4.183" ry="8.329"/>
			
				<ellipse transform="matrix(0.9994 0.0355 -0.0355 0.9994 6.4364 -1.76)" style="fill-rule:evenodd;clip-rule:evenodd;fill:#FFFFFF;" cx="52.789" cy="180.408" rx="4.183" ry="8.327"/>
			<path style="fill-rule:evenodd;clip-rule:evenodd;fill:#FCF7F9;" d="M114.224,125.136c1.766,5.33,8.893,33.373,10.274,40.09
				c2.021,9.826,3.818,35.039,8.477,42.221c4.659,7.182-1.881,8.889-7.934,6.475c-5.694-2.271-9.472-3.031-13.142-1.932
				c-5.248,1.57-7.925,0.523-13.742-1.787c-5.415-2.152-9.151-3.381-17.102-3.791c-6.237-0.324-14.07-5.898-16.543-8.232
				c-3.566-3.367,0.459-11.926-6.852-13.791c-5.807-1.48-12.322-11.707-3.093-12.842c12.272-1.508,18.269-9.256,23.923-17.432
				c5.654-8.174,11.289-20.703,17.37-26.32c3.242-2.996,4.959-4.412,5.823-5.553L114.224,125.136z"/>
			<path style="fill-rule:evenodd;clip-rule:evenodd;fill:#FFE0E9;" d="M61.279,186.933c9.675-8.973,23.398-23.893,29.04-33.18
				c-3.815,13.893-18.033,37.791-23.94,45.988c-0.774-0.596-1.41-1.133-1.864-1.563C62.312,196.099,63.079,190.433,61.279,186.933z"
				/>
			<path style="fill-rule:evenodd;clip-rule:evenodd;fill:#FFE0E9;" d="M124.168,213.578c-5.214-2.002-8.79-2.631-12.267-1.59
				c-0.259,0.078-0.512,0.15-0.76,0.215c-0.268-10.152,1.439-37.787,6.079-51.359C116.556,173.75,120.773,203.779,124.168,213.578z"
				/>
			<path style="fill-rule:evenodd;clip-rule:evenodd;fill:#FFE0E9;" d="M97.518,209.949c-4.386-1.723-7.78-2.813-13.54-3.334
				c7.08-13.631,17.011-42.018,19.025-49.498C101.401,164.713,97.372,194.609,97.518,209.949z"/>
			<g>
				<path style="fill-rule:evenodd;clip-rule:evenodd;fill:#FFD8B8;" d="M100.305,95.578c9.575-7.565,21.669-20.758,28.439-34.352
					l3.688,1.936c-4.618,13.506-15.609,30.66-22.294,37.332C102.152,108.463,90.646,103.209,100.305,95.578z"/>
				<path style="fill-rule:evenodd;clip-rule:evenodd;fill:#FFD8B8;" d="M128.76,56.041c0.945-1.381,1.891-1.336,2.572-0.367
					c1.129-2.209,3.658-2.92,4.733-2.185c2.091,1.43,2.209,4.892,0.266,7.732c-1.943,2.84-5.213,3.984-7.304,2.553
					C126.936,62.343,126.816,58.881,128.76,56.041z"/>
			</g>
		</g>
		<g>
			<g>
				<polygon style="fill-rule:evenodd;clip-rule:evenodd;fill:#323232;" points="173.95,177.297 172.892,157.088 172.477,144.224 
					172.016,130.648 188.506,129.695 186.624,175.107 				"/>
				<polygon style="fill-rule:evenodd;clip-rule:evenodd;fill:#323232;" points="172.331,139.937 172.536,139.931 172.477,144.226 
					172.477,144.224 				"/>
			</g>
			<g>
				<path style="fill-rule:evenodd;clip-rule:evenodd;fill:#323232;" d="M176.795,212.066l-2.893-38.611l12.723,1.713l-0.875,36.711
					C182.766,211.941,179.78,212.004,176.795,212.066z"/>
				
					<ellipse transform="matrix(-0.2034 -0.9791 0.9791 -0.2034 4.0825 429.0261)" style="fill-rule:evenodd;clip-rule:evenodd;fill:#1A1A1A;" cx="176.571" cy="212.852" rx="4.619" ry="9.197"/>
			</g>
			
				<rect x="184.242" y="80.152" transform="matrix(-0.9902 -0.1399 0.1399 -0.9902 365.7094 191.6597)" style="fill-rule:evenodd;clip-rule:evenodd;fill:#FFFFFF;" width="10.696" height="5.653"/>
			<polygon style="fill-rule:evenodd;clip-rule:evenodd;fill:#1A1A1A;" points="168.402,126.857 192.949,130.322 192.569,135.332 
				167.719,131.824 			"/>
			<path style="fill-rule:evenodd;clip-rule:evenodd;fill:#FFFFFF;" d="M188.74,81.871c-3.945,18.967-9.196,29.703-18.706,35.225
				l1.789-10.283l10.947-20.18l1.92-7.201L188.74,81.871z"/>
			<g>
				<path style="fill-rule:evenodd;clip-rule:evenodd;fill:#212E36;" d="M183.564,83.797c0.604-0.603,2.36-2.918,2.508-2.223
					c0.202,0.957-0.718,6.063-1.242,6.887c-0.381,0.602-1.218-2.18-1.573-2.957C183.199,85.027,183.344,84.224,183.564,83.797z"/>
				<path style="fill-rule:evenodd;clip-rule:evenodd;fill:#405059;" d="M182.886,83.263l0.597,0.108
					c0.152,0.027,0.255,0.176,0.228,0.328l-0.352,1.947c-0.027,0.154-0.175,0.256-0.328,0.229l-0.596-0.107
					c-0.153-0.027-0.256-0.176-0.228-0.328l0.351-1.949C182.585,83.338,182.733,83.236,182.886,83.263z"/>
			</g>
			<polygon style="fill-rule:evenodd;clip-rule:evenodd;fill:#323232;" points="192.699,133.666 195.015,83.08 186.769,83.718 
				170.796,112.482 167.94,130.054 			"/>
			<path style="fill-rule:evenodd;clip-rule:evenodd;fill:#1A1A1A;" d="M185.546,102.498c6.081,12.025,7.474,24.168,9.315,40.553
				l4.593-0.227c1.645-15.678-1.404-37.967-5.003-47.754C190.151,83.377,179.412,90.369,185.546,102.498z"/>
			<g>
				<path style="fill-rule:evenodd;clip-rule:evenodd;fill:#f1cc8f;" d="M205.805,60.896c-13.43-12.094-45.093-4.041-41.281-25.125
					c6.032,7.135,8.46,4.762,17.84,4.943C191.824,40.9,203.253,46.08,205.805,60.896z"/>
				<path style="fill-rule:evenodd;clip-rule:evenodd;fill:#f1cc8f;" d="M206.387,61.888c-11.23-14.16-43.792-11.49-36.524-31.646
					c4.761,8.039,7.55,6.103,16.769,7.844C195.929,39.842,206.336,46.853,206.387,61.888z"/>
				<g>
					
						<ellipse transform="matrix(0.1559 -0.9878 0.9878 0.1559 98.2165 237.0777)" style="fill-rule:evenodd;clip-rule:evenodd;fill:#FFD8B8;" cx="187.826" cy="61.071" rx="21.443" ry="22.153"/>
					<path style="fill-rule:evenodd;clip-rule:evenodd;fill:#f1cc8f;" d="M174.011,44.172c3.167,15.525,29.381,25.442,23.27,36.397
						c6.426-2.887,11.273-8.729,12.428-16.045c1.846-11.695-6.453-22.725-18.539-24.633
						C184.81,38.886,178.671,40.609,174.011,44.172z"/>
					
						<ellipse transform="matrix(0.1559 -0.9878 0.9878 0.1559 87.1451 219.1294)" style="fill-rule:evenodd;clip-rule:evenodd;fill:#A1CAF1;" cx="171.788" cy="58.575" rx="2.706" ry="1.546"/>
					<path style="fill-rule:evenodd;clip-rule:evenodd;fill:#E7B791;" d="M167.234,68.873c3.409,0.502,6.37-0.566,8.294-1.553
						c-2.117,1.855-4.819,2.855-7.55,3.06C167.779,70.062,167.428,69.246,167.234,68.873z"/>
				</g>
				
					<ellipse transform="matrix(0.3749 -0.9271 0.9271 0.3749 59.4812 219.8818)" style="fill-rule:evenodd;clip-rule:evenodd;fill:#FFD8B8;" cx="192.786" cy="65.835" rx="6.317" ry="4.043"/>
				<path style="fill-rule:evenodd;clip-rule:evenodd;fill:#f1cc8f;" d="M169.471,48.418c4.518,2.158,8.648,4.631,13.293,9.668
					c5.105,5.535,21.551-13.715,12.972-17.133C187.155,37.537,176.649,35.445,169.471,48.418z"/>
				<path style="fill-rule:evenodd;clip-rule:evenodd;fill:#f1cc8f;" d="M166.356,66.105c3.831-0.334,10.399-1.178,11.405,0.887
					c1.007,2.064,0.129,9.996,3.004,11.955c2.875,1.957,6.539-0.793,6.847-6.385c0.309-5.592,1.153-8.623-1.518-11.412
					c-2.672-2.789,3.758-7.461,3.407-3.049s0.239,20.897-3.098,23.324c-1.941,1.412-8.251,0.258-12.124-2.516
					c-1.815-1.299-3.619-3.027-4.814-6.123c0.759,0.961,5.751,5.121,7.379,4.912c1.549-0.201,0.875-8.488-0.311-10.148
					c-1.186-1.66-9.119-0.195-9.813-0.254C166.026,67.236,165.906,66.144,166.356,66.105z"/>
			</g>
			<path style="fill-rule:evenodd;clip-rule:evenodd;fill:#FFD8B8;" d="M191.334,145.248c-0.26,1.666,0.466,2.285,1.635,2.043
				c-0.695,2.4,0.671,4.666,1.966,4.867c2.521,0.393,4.996-2.066,5.527-5.492c0.532-3.426-1.079-6.518-3.601-6.91
				C194.34,139.365,191.865,141.822,191.334,145.248z"/>
			<path style="fill-rule:evenodd;clip-rule:evenodd;fill:#1A1A1A;" d="M196.496,158.652c-6.63-3.27-12.824-16.857-14.067-24.895
				l9.881-11.322C192.31,122.435,196.58,147.506,196.496,158.652z"/>
			<path style="fill-rule:evenodd;clip-rule:evenodd;fill:#323232;" d="M183.956,132.008l8.354-9.572c0,0,3.771,21.361,4.124,33.24
				C190.562,153.07,185.601,139.191,183.956,132.008z"/>
		</g>
	</g>
</g>
</svg>