<?xml version="1.0" encoding="iso-8859-1"?>
<!-- Uploaded to: SVG Repo, www.svgrepo.com, Generator: SVG Repo Mixer Tools -->
<!DOCTYPE svg PUBLIC "-//W3C//DTD SVG 1.1//EN" "http://www.w3.org/Graphics/SVG/1.1/DTD/svg11.dtd">
<svg version="1.1" id="Capa_1" xmlns="http://www.w3.org/2000/svg" xmlns:xlink="http://www.w3.org/1999/xlink" 
	 viewBox="0 0 182.934 182.934" xml:space="preserve">
<g>
	<g>
		<g>
			<path style="fill-rule:evenodd;clip-rule:evenodd;fill:#E7B791;" d="M56.114,63.535c3.874,0.16,6.876,1.424,10.751,1.584
				c0.226-5.468,0.45-10.935,0.676-16.402c-3.875-0.16-7.749-0.319-11.623-0.479C55.693,53.705,55.306,57.331,56.114,63.535z"/>
			<path style="fill-rule:evenodd;clip-rule:evenodd;fill:#FFD8B8;" d="M67.964,95.995l-9.854-19.596
				c-1.484-5.315-2.35-10.366-2.423-17.407c3.831-0.461,7.719,0.686,11.339-0.997c2.975,0.573,7.501,6.626,8.438,12.512
				l3.986,22.148L67.964,95.995z"/>
			
				<ellipse transform="matrix(-0.2253 -0.9743 0.9743 -0.2253 26.7375 68.6858)" style="fill-rule:evenodd;clip-rule:evenodd;fill:#91613A;" cx="40.675" cy="23.713" rx="15.362" ry="15.517"/>
			<path style="fill-rule:evenodd;clip-rule:evenodd;fill:#FFFFFF;" d="M43.508,35.328c0.008,0.049,0.013,0.1,0.013,0.149
				c0.126,0.006,0.253,0.041,0.369,0.109c0.393,0.228,0.525,0.729,0.299,1.121c-0.025,0.044-0.055,0.084-0.086,0.121
				c0.093,0.086,0.167,0.195,0.213,0.322c0.153,0.426-0.066,0.896-0.492,1.051c-0.047,0.016-0.096,0.029-0.145,0.037
				c0.016,0.125,0.004,0.257-0.043,0.384c-0.156,0.425-0.627,0.643-1.052,0.487c-0.048-0.017-0.093-0.038-0.135-0.063
				c-0.068,0.105-0.163,0.197-0.28,0.266c-0.393,0.226-0.894,0.09-1.12-0.303c-0.025-0.043-0.045-0.089-0.061-0.135
				c-0.121,0.037-0.252,0.047-0.386,0.023c-0.445-0.079-0.743-0.506-0.663-0.951c0.009-0.05,0.022-0.098,0.039-0.144
				c-0.116-0.05-0.223-0.126-0.31-0.229c-0.289-0.348-0.243-0.865,0.104-1.155c0.038-0.032,0.08-0.061,0.122-0.085
				c-0.058-0.112-0.09-0.24-0.09-0.375c0-0.453,0.368-0.82,0.822-0.818c0.05,0,0.1,0.004,0.146,0.014
				c0.03-0.124,0.086-0.242,0.173-0.346c0.292-0.347,0.81-0.391,1.156-0.1c0.038,0.033,0.074,0.068,0.104,0.105
				c0.102-0.076,0.221-0.13,0.354-0.153C43.006,34.584,43.43,34.882,43.508,35.328z"/>
			<path style="fill-rule:evenodd;clip-rule:evenodd;fill:#FFFFFF;" d="M44.626,29.806c0.008,0.05,0.013,0.1,0.012,0.148
				c0.126,0.006,0.253,0.041,0.37,0.109c0.392,0.227,0.525,0.729,0.298,1.121c-0.025,0.044-0.055,0.084-0.086,0.122
				c0.094,0.086,0.167,0.194,0.213,0.321c0.154,0.426-0.065,0.896-0.492,1.05c-0.047,0.018-0.096,0.03-0.143,0.038
				c0.015,0.126,0.002,0.257-0.045,0.384c-0.155,0.425-0.627,0.645-1.053,0.488c-0.047-0.018-0.092-0.039-0.134-0.064
				c-0.068,0.107-0.162,0.198-0.279,0.266c-0.394,0.225-0.895,0.092-1.12-0.301c-0.025-0.045-0.046-0.09-0.063-0.136
				c-0.12,0.038-0.251,0.048-0.385,0.023c-0.446-0.079-0.744-0.506-0.664-0.951c0.009-0.05,0.022-0.099,0.039-0.144
				c-0.116-0.05-0.224-0.127-0.31-0.23c-0.29-0.348-0.245-0.865,0.103-1.156c0.039-0.032,0.08-0.06,0.123-0.085
				c-0.059-0.111-0.091-0.239-0.09-0.374c0-0.452,0.368-0.819,0.821-0.818c0.051,0,0.1,0.004,0.147,0.013
				c0.028-0.123,0.086-0.241,0.173-0.346c0.292-0.346,0.809-0.391,1.155-0.098c0.039,0.031,0.074,0.067,0.104,0.105
				c0.101-0.076,0.221-0.131,0.354-0.153C44.123,29.06,44.548,29.359,44.626,29.806z"/>
			<path style="fill-rule:evenodd;clip-rule:evenodd;fill:#FFFFFF;" d="M47.294,24.882c0.009,0.05,0.013,0.101,0.013,0.149
				c0.126,0.006,0.253,0.041,0.369,0.109c0.394,0.227,0.525,0.728,0.299,1.12c-0.025,0.044-0.054,0.085-0.086,0.122
				c0.093,0.086,0.167,0.194,0.213,0.321c0.154,0.427-0.066,0.896-0.492,1.051c-0.047,0.017-0.096,0.03-0.144,0.038
				c0.016,0.125,0.002,0.256-0.044,0.383c-0.156,0.426-0.627,0.645-1.053,0.488c-0.047-0.018-0.092-0.039-0.134-0.063
				c-0.069,0.106-0.163,0.198-0.28,0.266c-0.393,0.226-0.895,0.091-1.12-0.302c-0.024-0.044-0.046-0.089-0.063-0.136
				c-0.12,0.038-0.252,0.048-0.384,0.024c-0.446-0.08-0.743-0.506-0.664-0.951c0.009-0.051,0.021-0.098,0.039-0.144
				c-0.116-0.05-0.224-0.127-0.311-0.229c-0.29-0.349-0.244-0.865,0.104-1.156c0.038-0.032,0.08-0.06,0.122-0.084
				c-0.057-0.112-0.091-0.24-0.09-0.376c0.001-0.452,0.368-0.819,0.821-0.818c0.051,0,0.101,0.005,0.148,0.013
				c0.028-0.123,0.086-0.241,0.172-0.345c0.292-0.346,0.81-0.391,1.156-0.1c0.038,0.033,0.073,0.068,0.104,0.106
				c0.101-0.077,0.221-0.131,0.354-0.153C46.792,24.137,47.216,24.435,47.294,24.882z"/>
			<path style="fill-rule:evenodd;clip-rule:evenodd;fill:#FFFFFF;" d="M52.377,20.599c0.051,0,0.101-0.005,0.148-0.013
				c0.028,0.123,0.084,0.242,0.172,0.346c0.29,0.347,0.807,0.394,1.155,0.103c0.038-0.032,0.072-0.067,0.104-0.106
				c0.101,0.077,0.22,0.132,0.353,0.155c0.446,0.079,0.872-0.218,0.951-0.664c0.01-0.05,0.014-0.1,0.014-0.148
				c0.126-0.006,0.253-0.041,0.37-0.107c0.392-0.227,0.528-0.728,0.302-1.121c-0.025-0.043-0.053-0.084-0.085-0.121
				c0.093-0.086,0.167-0.194,0.214-0.32c0.155-0.426-0.063-0.897-0.489-1.053c-0.047-0.018-0.095-0.029-0.144-0.039
				c0.017-0.125,0.004-0.256-0.042-0.383c-0.154-0.426-0.625-0.646-1.051-0.492c-0.048,0.017-0.092,0.039-0.135,0.063
				c-0.068-0.106-0.162-0.198-0.279-0.267c-0.392-0.226-0.893-0.094-1.121,0.298c-0.024,0.044-0.045,0.089-0.062,0.136
				c-0.121-0.037-0.253-0.049-0.385-0.025c-0.446,0.078-0.745,0.503-0.667,0.949c0.008,0.05,0.021,0.098,0.038,0.144
				c-0.116,0.05-0.224,0.126-0.31,0.229c-0.292,0.347-0.248,0.864,0.099,1.156c0.039,0.032,0.08,0.06,0.122,0.085
				c-0.059,0.112-0.091,0.24-0.091,0.375C51.558,20.23,51.925,20.598,52.377,20.599z"/>
			<path style="fill-rule:evenodd;clip-rule:evenodd;fill:#FFFFFF;" d="M47.981,24.067c0.051,0,0.101-0.005,0.148-0.014
				c0.027,0.124,0.084,0.242,0.171,0.346c0.291,0.348,0.808,0.394,1.155,0.103c0.039-0.031,0.073-0.067,0.105-0.104
				c0.1,0.076,0.22,0.132,0.353,0.154c0.446,0.079,0.872-0.218,0.951-0.663c0.009-0.05,0.014-0.1,0.013-0.148
				c0.127-0.007,0.254-0.041,0.371-0.107c0.393-0.227,0.527-0.729,0.302-1.121c-0.025-0.044-0.054-0.084-0.086-0.121
				c0.093-0.086,0.168-0.194,0.215-0.321c0.155-0.425-0.063-0.897-0.489-1.052c-0.048-0.018-0.095-0.03-0.144-0.039
				c0.016-0.125,0.004-0.256-0.042-0.383c-0.154-0.426-0.625-0.646-1.051-0.492c-0.048,0.018-0.093,0.038-0.135,0.063
				c-0.068-0.107-0.162-0.198-0.279-0.267c-0.392-0.228-0.893-0.094-1.121,0.298c-0.024,0.044-0.046,0.089-0.063,0.136
				c-0.12-0.038-0.252-0.049-0.385-0.025c-0.446,0.078-0.745,0.503-0.666,0.949c0.008,0.05,0.021,0.098,0.038,0.144
				c-0.117,0.049-0.225,0.125-0.31,0.229c-0.292,0.347-0.248,0.863,0.099,1.156c0.038,0.032,0.079,0.06,0.122,0.085
				c-0.059,0.111-0.091,0.239-0.092,0.374C47.161,23.699,47.527,24.066,47.981,24.067z"/>
			
				<ellipse transform="matrix(-0.2254 -0.9743 0.9743 -0.2254 41.4343 106.1595)" style="fill-rule:evenodd;clip-rule:evenodd;fill:#FFD8B8;" cx="62.92" cy="36.608" rx="19.555" ry="20.201"/>
			<path style="fill-rule:evenodd;clip-rule:evenodd;fill:#FCF7F9;" d="M58.109,76.399c1.382-0.376,8.912-12.133,15.404-11.638
				c0.923,1.793,1.638,3.778,1.95,5.745l4.059,20.773l-3.74,1.916l-7.818,2.799L58.109,76.399z"/>
			<path style="fill-rule:evenodd;clip-rule:evenodd;fill:#91613A;" d="M74.398,20.344c-5.65,0.604-17.261,20.496-18.821,34.61
				c-6.03-2.212-10.817-7.214-12.338-13.793c-2.435-10.522,4.403-21.091,15.274-23.604C64.234,16.233,69.929,17.405,74.398,20.344z"
				/>
			
				<ellipse transform="matrix(-0.4395 -0.8983 0.8983 -0.4395 47.454 112.1379)" style="fill-rule:evenodd;clip-rule:evenodd;fill:#FFD8B8;" cx="58.715" cy="41.263" rx="5.761" ry="3.687"/>
			<path style="fill-rule:evenodd;clip-rule:evenodd;fill:#91613A;" d="M72.424,65.076c-12.222-22.66-4.649-41.735,2.178-44.793
				C63.763,20.361,55.316,40.817,72.424,65.076z"/>
			<path style="fill-rule:evenodd;clip-rule:evenodd;fill:#F9EDF2;" d="M42.394,8.771c-8.8,25.273-5.833,48.926,7.718,74.212
				c-16.853,8.9-29.557,11.102-45.114,5.921C2.213,62.852,10.202,4.893,42.394,8.771z"/>
			
				<ellipse transform="matrix(-0.2252 -0.9743 0.9743 -0.2252 62.3223 116.1668)" style="fill-rule:evenodd;clip-rule:evenodd;fill:#666666;" cx="77.349" cy="33.304" rx="2.467" ry="1.41"/>
			<path style="fill-rule:evenodd;clip-rule:evenodd;fill:#E7B791;" d="M81.995,42.749c-2.408-0.138-5.464-0.627-7.485-1.249
				c2.045,1.552,4.568,2.287,7.064,2.298C81.77,43.314,81.849,43.137,81.995,42.749z"/>
			
				<ellipse transform="matrix(0.1556 -0.9878 0.9878 0.1556 -89.0304 252.8946)" style="fill-rule:evenodd;clip-rule:evenodd;fill:#FFFFFF;" cx="103.403" cy="178.521" rx="4.212" ry="8.387"/>
			<path style="fill-rule:evenodd;clip-rule:evenodd;fill:#FCF7F9;" d="M76.202,88.325c8.417,2.502,20.095,33.836,22.258,38.909
				c3.93,9.207,11.864,33.117,18.309,38.844c6.444,5.727,0.551,9.133-5.971,8.406c-6.136-0.682-10.008-0.408-13.275,1.641
				c-4.676,2.928-7.555,2.627-13.82,1.939c-5.833-0.641-9.787-0.834-17.617,0.893c-6.142,1.355-9.491,0.449-12.518-1.158
				c-4.363-2.316-6.689-1.756-12.659-0.971c-5.97,0.785-12.567-1.842-6.521-7.988c6.046-6.145,11.918-30.52,15.222-39.969
				c3.303-9.449,5.423-23.121,9.824-30.201c2.346-3.773,3.635-5.607,4.169-6.946L76.202,88.325z"/>
			<path style="fill-rule:evenodd;clip-rule:evenodd;fill:#FFE0E9;" d="M54.937,178.46c-0.469-0.203-0.922-0.426-1.369-0.662
				c-4.109-2.18-6.412-1.813-11.654-1.105c5.321-8.953,15.565-37.773,17.516-50.656C61.301,140.622,57.23,168.911,54.937,178.46z"/>
			<path style="fill-rule:evenodd;clip-rule:evenodd;fill:#FFE0E9;" d="M109.857,174.386c-5.597-0.549-9.236-0.203-12.334,1.736
				c-0.231,0.146-0.458,0.283-0.681,0.412c-2.976-9.785-8.708-37.07-7.834-51.49C91.815,137.753,103.941,165.778,109.857,174.386z"
				/>
			<path style="fill-rule:evenodd;clip-rule:evenodd;fill:#FFE0E9;" d="M83.013,177.989c-4.719-0.5-8.307-0.65-14.038,0.385
				c3.23-15.129,5.279-45.344,5.233-53.144C74.685,133.032,78.769,163.134,83.013,177.989z"/>
			<g>
				<path style="fill-rule:evenodd;clip-rule:evenodd;fill:#FFD8B8;" d="M67.087,63.728c7.656,9.61,20.993,21.735,34.71,28.497
					l-1.933,3.721c-13.622-4.594-30.94-15.592-37.687-22.296C54.118,65.642,59.362,54.033,67.087,63.728z"/>
				<path style="fill-rule:evenodd;clip-rule:evenodd;fill:#FFD8B8;" d="M105.561,89.854c1.586,0.57,1.782,1.504,1.011,2.415
					c2.438,0.539,3.773,2.824,3.33,4.057c-0.863,2.4-4.207,3.394-7.469,2.221c-3.261-1.172-5.205-4.07-4.342-6.469
					C98.955,89.676,102.299,88.68,105.561,89.854z"/>
			</g>
		</g>
		<g>
			<path style="fill-rule:evenodd;clip-rule:evenodd;fill:#91613A;" d="M174.244,28.618c-14.079-11.331-45.247-1.538-42.609-22.802
				c6.418,6.789,8.711,4.286,18.087,3.949C159.178,9.426,170.876,13.965,174.244,28.618z"/>
			<path style="fill-rule:evenodd;clip-rule:evenodd;fill:#91613A;" d="M174.88,29.575C162.883,16.06,130.52,20.529,136.66,0
				c5.198,7.764,7.876,5.677,17.177,6.904C163.218,8.143,173.997,14.566,174.88,29.575z"/>
			<g>
				<polygon style="fill-rule:evenodd;clip-rule:evenodd;fill:#323232;" points="124.044,142.821 126.427,122.727 128.199,109.979 
					130.048,96.522 146.461,98.378 136.905,142.813 				"/>
				<polygon style="fill-rule:evenodd;clip-rule:evenodd;fill:#323232;" points="128.783,105.729 128.987,105.759 128.199,109.981 
					128.199,109.979 				"/>
			</g>
			<g>
				<path style="fill-rule:evenodd;clip-rule:evenodd;fill:#323232;" d="M120.951,177.571l3.697-38.543l12.248,3.844l-7.089,36.031
					C126.857,178.46,123.903,178.015,120.951,177.571z"/>
				
					<ellipse transform="matrix(-0.0343 -0.9994 0.9994 -0.0343 -53.4738 304.943)" style="fill-rule:evenodd;clip-rule:evenodd;fill:#1A1A1A;" cx="120.598" cy="178.308" rx="4.618" ry="9.197"/>
			</g>
			
				<rect x="150.104" y="49.695" transform="matrix(-0.9521 -0.3057 0.3057 -0.9521 287.4063 150.0483)" style="fill-rule:evenodd;clip-rule:evenodd;fill:#FFFFFF;" width="10.696" height="5.654"/>
			<polygon style="fill-rule:evenodd;clip-rule:evenodd;fill:#1A1A1A;" points="127.13,92.173 150.734,99.749 149.51,104.622 
				125.613,96.95 			"/>
			<path style="fill-rule:evenodd;clip-rule:evenodd;fill:#FFFFFF;" d="M154.802,51.285c-7.104,18.025-14.1,27.715-24.409,31.543
				l3.508-9.831l14.21-18.03l3.113-6.771L154.802,51.285z"/>
			<g>
				<path style="fill-rule:evenodd;clip-rule:evenodd;fill:#212E36;" d="M149.373,52.307c0.698-0.493,2.821-2.476,2.849-1.766
					c0.037,0.977-1.735,5.852-2.392,6.577c-0.478,0.526-0.831-2.357-1.049-3.183C148.806,53.456,149.084,52.69,149.373,52.307z"/>
				<path style="fill-rule:evenodd;clip-rule:evenodd;fill:#405059;" d="M148.796,51.665l0.569,0.207
					c0.145,0.053,0.222,0.216,0.169,0.362l-0.677,1.86c-0.053,0.146-0.216,0.222-0.361,0.169l-0.569-0.207
					c-0.146-0.054-0.223-0.217-0.169-0.361l0.676-1.861C148.487,51.688,148.65,51.611,148.796,51.665z"/>
			</g>
			<polygon style="fill-rule:evenodd;clip-rule:evenodd;fill:#323232;" points="149.92,103.003 160.78,53.541 152.545,52.772 
				131.926,78.41 126.132,95.245 			"/>
			<path style="fill-rule:evenodd;clip-rule:evenodd;fill:#1A1A1A;" d="M147.891,59.098c-8.047,10.809-22.227,24.576-37.017,32.481
				l2.254,4.008c14.763-5.526,33.348-18.202,40.5-25.792C162.173,60.729,156.007,48.194,147.891,59.098z"/>
			<path style="fill-rule:evenodd;clip-rule:evenodd;fill:#FFD8B8;" d="M107.334,89.403c-1.607,0.512-1.836,1.438-1.099,2.375
				c-2.458,0.45-3.876,2.682-3.478,3.932c0.774,2.43,4.079,3.547,7.381,2.494c3.303-1.053,5.352-3.875,4.577-6.307
				C113.941,89.467,110.637,88.35,107.334,89.403z"/>
			<g>
				
					<ellipse transform="matrix(0.101 -0.9949 0.9949 0.101 110.8863 182.2842)" style="fill-rule:evenodd;clip-rule:evenodd;fill:#FFD8B8;" cx="156.303" cy="29.788" rx="21.443" ry="22.153"/>
				<path style="fill-rule:evenodd;clip-rule:evenodd;fill:#91613A;" d="M141.573,13.679c4.021,15.327,30.744,23.776,25.249,35.054
					c6.256-3.238,10.772-9.341,11.52-16.709c1.195-11.781-7.702-22.334-19.875-23.569C152.064,7.804,146.028,9.864,141.573,13.679z"
					/>
				
					<ellipse transform="matrix(0.1011 -0.9949 0.9949 0.1011 97.9456 164.7684)" style="fill-rule:evenodd;clip-rule:evenodd;fill:#666666;" cx="140.151" cy="28.184" rx="2.705" ry="1.546"/>
				<path style="fill-rule:evenodd;clip-rule:evenodd;fill:#E7B791;" d="M136.175,38.718c3.432,0.313,6.329-0.919,8.195-2.011
					c-2.011,1.971-4.654,3.119-7.369,3.475C136.784,39.875,136.388,39.08,136.175,38.718z"/>
			</g>
			
				<ellipse transform="matrix(0.3229 -0.9464 0.9464 0.3229 76.9284 176.0704)" style="fill-rule:evenodd;clip-rule:evenodd;fill:#FFD8B8;" cx="161.52" cy="34.27" rx="6.317" ry="4.044"/>
			<path style="fill-rule:evenodd;clip-rule:evenodd;fill:#91613A;" d="M137.275,18.17c4.63,1.905,8.892,4.145,13.808,8.917
				c5.403,5.245,20.76-14.887,12.004-17.824C154.33,6.326,143.725,4.82,137.275,18.17z"/>
			<path style="fill-rule:evenodd;clip-rule:evenodd;fill:#91613A;" d="M135.144,36.003c3.807-0.545,10.318-1.751,11.438,0.254
				c1.119,2.005,0.682,9.974,3.661,11.771c2.979,1.795,6.484-1.154,6.482-6.754c-0.002-5.601,0.674-8.675-2.148-11.312
				c-2.822-2.636,3.339-7.657,3.233-3.232c-0.105,4.425,1.396,20.852-1.802,23.46c-1.859,1.519-8.225,0.714-12.244-1.84
				c-1.885-1.197-3.781-2.822-5.146-5.848c0.812,0.918,6.025,4.796,7.64,4.496c1.536-0.287,0.404-8.522-0.872-10.115
				c-1.275-1.592-9.116,0.309-9.811,0.289C134.878,37.15,134.697,36.066,135.144,36.003z"/>
			<path style="fill-rule:evenodd;clip-rule:evenodd;fill:#1A1A1A;" d="M149.425,128.272c-5.979-4.35-9.78-18.789-9.642-26.922
				l11.657-9.482C151.441,91.868,151.398,117.3,149.425,128.272z"/>
			<path style="fill-rule:evenodd;clip-rule:evenodd;fill:#323232;" d="M141.584,99.886l9.856-8.017c0,0,0.094,21.691-1.572,33.459
				C144.523,121.763,141.987,107.245,141.584,99.886z"/>
		</g>
	</g>
</g>
</svg>